<mxfile host="app.diagrams.net" modified="2022-04-18T03:31:15.144Z" agent="5.0 (Windows NT 10.0; Win64; x64) AppleWebKit/537.36 (KHTML, like Gecko) Chrome/100.0.4896.88 Safari/537.36" etag="6dPtaVV2ejAb-SLvh3Qz" version="17.4.3" type="github">
  <diagram id="rUN5KzVGXAF8q-OH2IqZ" name="第 1 页">
    <mxGraphModel dx="1483" dy="690" grid="1" gridSize="10" guides="1" tooltips="1" connect="1" arrows="1" fold="1" page="1" pageScale="1" pageWidth="827" pageHeight="1169" math="0" shadow="0">
      <root>
        <mxCell id="0" />
        <mxCell id="1" parent="0" />
        <mxCell id="Z9LiHGhNITF9_QhwEXv6-40" value="ContentController" style="shape=umlLifeline;perimeter=lifelinePerimeter;whiteSpace=wrap;html=1;container=1;collapsible=0;recursiveResize=0;outlineConnect=0;" vertex="1" parent="1">
          <mxGeometry x="160" y="70" width="140" height="300" as="geometry" />
        </mxCell>
        <mxCell id="Z9LiHGhNITF9_QhwEXv6-41" value="ConUpdateServiceImpl" style="shape=umlLifeline;perimeter=lifelinePerimeter;whiteSpace=wrap;html=1;container=1;collapsible=0;recursiveResize=0;outlineConnect=0;" vertex="1" parent="1">
          <mxGeometry x="423" y="70" width="140" height="300" as="geometry" />
        </mxCell>
        <mxCell id="Z9LiHGhNITF9_QhwEXv6-43" value="ConStandHandler" style="shape=umlLifeline;perimeter=lifelinePerimeter;whiteSpace=wrap;html=1;container=1;collapsible=0;recursiveResize=0;outlineConnect=0;" vertex="1" parent="1">
          <mxGeometry x="690" y="80" width="140" height="300" as="geometry" />
        </mxCell>
        <mxCell id="Z9LiHGhNITF9_QhwEXv6-48" value="调用方" style="shape=umlLifeline;participant=umlActor;perimeter=lifelinePerimeter;whiteSpace=wrap;html=1;container=1;collapsible=0;recursiveResize=0;verticalAlign=top;spacingTop=36;outlineConnect=0;" vertex="1" parent="1">
          <mxGeometry x="40" y="70" width="40" height="310" as="geometry" />
        </mxCell>
      </root>
    </mxGraphModel>
  </diagram>
</mxfile>
